<svg width="555" height="186" viewBox="0 0 555 186" fill="none" xmlns="http://www.w3.org/2000/svg">
<path fill-rule="evenodd" clip-rule="evenodd" d="M84.1901 185.288C67.8847 154.657 81.3944 134.764 107.784 122.482C115.67 118.814 122.934 117.957 127.588 113.756C134.916 107.146 144.168 92.6749 150.179 90.1539C158.849 86.526 156.619 94.4686 156.619 94.4686C156.619 94.4686 147.303 112.641 145.978 114.547C144.653 116.438 138.472 122.959 136.508 123.71C138.585 123.613 143.36 119.622 147.513 115.129C148.757 113.788 149.573 111.695 150.64 109.651C155.238 100.844 159.407 95.8261 159.423 91.4871C159.439 87.1401 155.052 87.3986 155.052 87.3986C155.052 87.3986 157.249 79.763 155.528 66.1482C154.446 57.5834 159.682 53.4465 162.413 54.6746C163.625 55.2241 163.891 61.6719 164.182 63.902C165.434 73.5738 169.192 89.4348 167.317 96.2786C164.934 104.981 160.279 125.657 150.486 135.362C123.33 162.292 99.227 147.845 84.1901 185.288Z" fill="#006498"/>
<path fill-rule="evenodd" clip-rule="evenodd" d="M84.1901 185.288C100.568 154.697 87.107 134.772 60.75 122.425C52.8801 118.741 45.6162 117.868 40.9702 113.659C33.6658 107.033 24.4385 92.5295 18.4351 90.0004C9.77329 86.3483 11.9872 94.299 11.9872 94.299C11.9872 94.299 21.263 112.495 22.5801 114.402C23.9052 116.293 30.0541 122.829 32.0256 123.581C29.949 123.476 25.1738 119.476 21.0449 114.976C19.8006 113.634 18.9845 111.534 17.9341 109.497C13.3527 100.674 9.19961 95.6564 9.19153 91.3094C9.19153 86.9623 13.579 87.229 13.579 87.229C13.579 87.229 11.3974 79.5853 13.1507 65.9786C14.2577 57.4138 9.02993 53.2687 6.29081 54.4888C5.07881 55.0382 4.78793 61.478 4.49705 63.7162C3.21233 73.3879 -0.56911 89.2409 1.28929 96.0927C3.64865 104.803 8.25425 125.48 18.023 135.208C45.1152 162.203 69.2421 147.805 84.1901 185.288Z" fill="#006498"/>
<path d="M137.26 13.9353C136.581 19.0661 135.038 23.3081 128.767 24.9322C127.58 25.2392 126.4 25.6998 127.652 26.9602C133.187 32.5435 133.809 39.153 133.575 45.9967C133.454 49.6085 134.084 50.069 138.253 50.2226C138.358 51.3538 137.235 51.7658 136.371 52.0002C133.034 52.9213 133.389 54.715 134.326 56.8805C135.385 59.3287 137.704 60.7589 139.966 62.3022C144.507 65.413 144.451 66.9562 139.449 69.4206C135.934 71.1498 136.201 73.5657 136.912 76.2725C137.453 78.349 138.56 80.6761 133.664 81.4922C137.631 82.6557 137.025 84.3686 135.934 86.227C134.448 88.7561 134.189 91.3821 134.706 94.1858C135.902 100.698 133.236 103.591 125.39 104.682C122.619 105.07 119.847 105.288 117.027 105.296C111.25 105.312 107.978 107.259 106.038 111.857C105.303 113.594 104.673 115.388 104.317 117.206C103.946 119.105 102.831 119.896 100.568 119.864C96.9484 119.808 93.3286 119.816 89.7007 119.856C87.2039 119.888 86.4202 119.105 86.9777 116.988C88.5452 111.105 89.9996 105.207 90.8318 99.1954C92.8034 85.0635 92.1731 71.0609 88.4079 57.1633C83.8103 40.1791 85.798 23.3242 89.9673 6.50976C90.3551 4.93416 91.1227 4.11 93.272 4.34432C102.338 5.29776 111.032 7.27736 118.263 12.0526C124.226 15.9876 129.907 18.7752 137.26 13.9353Z" fill="#3DB19E"/>
<path d="M38.0856 80.4175C33.8355 79.7954 32.9467 78.7046 34.9748 75.9654C37.8351 72.087 36.0737 68.9359 30.951 67.7804C27.113 66.9159 26.3131 65.2433 28.7532 62.5203C31.0318 59.9751 33.6739 57.6642 36.0494 55.1756C38.7239 52.3799 40.2915 49.2045 40.1541 45.5119C40.0814 43.5646 40.1218 41.6174 40.1218 39.6701C40.1299 35.1857 41.2691 30.9841 44.3719 27.2673C44.8809 26.6532 45.5919 25.9664 44.792 25.1826C44.1941 24.5928 43.3457 24.7221 42.5458 24.8352C41.1237 25.0291 39.7905 25.7402 37.8836 25.32C40.2834 21.7567 43.6851 19.1954 47.0948 16.6906C56.0232 10.1377 66.1071 5.62904 77.9685 4.40896C78.421 4.36048 78.8654 4.24736 79.3178 4.22312C86.2262 3.85952 85.4102 4.14232 83.4225 8.7156C76.1424 25.4735 74.4214 42.595 79.4956 60.0559C83.5598 74.0343 85.297 88.2228 84.6102 102.605C84.3759 107.558 83.7214 112.495 82.6953 117.392C82.3155 119.21 81.2409 119.872 79.229 119.856C76.2636 119.824 73.2902 119.775 70.3248 119.88C67.8766 119.969 66.9797 119.105 66.6646 117.036C65.9212 112.099 63.7396 107.849 58.0028 105.562C55.6111 104.609 53.1225 104.625 50.6258 104.666C47.2887 104.722 44.0002 104.488 40.8167 103.623C36.4131 102.427 35.0718 100.205 36.3888 96.424C37.2291 94.0162 38.7805 91.7861 38.732 89.1439C38.7078 87.7138 38.4896 86.3806 37.0756 85.4837C34.5142 83.8515 34.2234 82.3002 38.0856 80.4175Z" fill="#3DB19E"/>
<path d="M82.8488 125.407C85.087 114.337 86.0646 103.332 85.8465 92.1658C85.6122 80.3125 83.4871 68.7742 80.9177 57.2522C76.708 38.3934 79.4714 20.3427 87.7049 3.00304C88.0362 2.31624 88.4079 1.6456 88.7957 0.983044C88.8765 0.837604 89.0866 0.764884 89.4259 0.514404C89.838 1.62944 89.3128 2.56672 89.0866 3.47976C86.0404 15.8179 84.4083 28.3096 84.7476 41.0356C84.9658 49.3176 87.0504 57.3168 88.3917 65.4372C91.7207 85.5079 89.2401 105.126 83.3336 124.421C83.2286 124.761 83.0104 125.076 82.8488 125.407Z" fill="#006498"/>
<path d="M211.05 94.3035C221.632 94.3035 229.92 89.3455 229.92 78.6895C229.92 68.2555 220.744 64.7035 212.678 61.5215C206.24 59.0795 200.468 56.7115 200.468 51.2355C200.468 45.6855 205.278 43.1695 210.902 43.1695C217.784 43.1695 222.52 45.8335 225.036 49.6075L229.55 45.0195C225.85 40.5795 219.338 37.3235 210.754 37.3235C201.43 37.3235 193.66 42.3555 193.66 51.7535C193.66 60.7075 201.726 63.7415 209.422 66.6275C216.452 69.2915 223.186 71.8815 223.112 79.0595C223.038 85.2755 217.858 87.8655 211.272 87.8655C203.65 87.8655 197.212 84.1655 194.992 78.6155L190.108 83.5735C193.956 89.8635 201.948 94.3035 211.05 94.3035Z" fill="#3DB19E"/>
<path d="M243.677 49.6815C245.971 49.6815 247.969 47.8315 247.969 45.4635C247.969 43.0215 245.971 41.0975 243.677 41.0975C241.309 41.0975 239.311 43.0215 239.311 45.4635C239.311 47.8315 241.309 49.6815 243.677 49.6815ZM240.347 93.5635H246.859V56.5635H240.347V93.5635Z" fill="#3DB19E"/>
<path d="M274.197 94.3035C277.231 94.3035 280.931 93.4895 283.743 91.2695V84.7575C281.671 87.1255 278.415 88.7535 274.863 88.7535C267.537 88.7535 263.171 82.8335 263.171 75.0635C263.171 67.2935 267.537 61.3735 274.863 61.3735C278.341 61.3735 281.597 63.0015 283.743 65.3695V58.7835C280.857 56.5635 277.231 55.8235 274.197 55.8235C263.319 55.8235 256.733 64.0375 256.733 75.0635C256.733 86.0895 263.319 94.3035 274.197 94.3035Z" fill="#3DB19E"/>
<path d="M323.357 89.2715L305.079 72.8435L322.765 56.5635H314.477L298.789 70.9935V38.0635H292.277V93.5635H298.789V75.2115L323.357 97.2635V89.2715Z" fill="#3DB19E"/>
<path d="M359.481 65.9751C363.329 63.7551 365.697 59.9811 365.697 54.4311C365.697 44.8111 358.445 39.1131 349.269 39.1131H328.549V94.6131H353.561C362.663 94.6131 369.841 89.0631 369.841 79.5171C369.841 72.1911 365.623 67.8251 359.481 65.9751ZM354.597 55.5411C354.597 59.1671 351.637 62.3491 347.937 62.3491H339.649V48.8071H347.937C351.637 48.8071 354.597 51.9151 354.597 55.5411ZM351.933 84.8451H339.649V71.3771H351.933C355.707 71.3771 358.667 74.4851 358.667 78.1111C358.667 81.7371 355.707 84.8451 351.933 84.8451Z" fill="#006498"/>
<path d="M397.835 56.8731C393.543 56.8731 389.769 59.3891 387.253 63.3111L386.661 57.6131H376.967V94.6131H387.771V76.1131C387.771 69.9711 392.063 66.2711 396.503 66.2711C399.611 66.2711 401.239 67.2331 402.275 67.9731L406.789 60.0551C404.569 57.9091 402.127 56.8731 397.835 56.8731Z" fill="#006498"/>
<path d="M415.992 51.2491C419.322 51.2491 422.134 48.5111 422.134 45.1811C422.134 41.8511 419.322 39.1131 415.992 39.1131C412.736 39.1131 409.924 41.8511 409.924 45.1811C409.924 48.5111 412.736 51.2491 415.992 51.2491ZM410.59 94.6131H421.394V57.6131H410.59V94.6131Z" fill="#006498"/>
<path d="M456.252 39.1131V60.8691C453.662 58.3531 450.258 56.8731 446.188 56.8731C436.05 56.8731 429.02 65.3091 429.02 76.1131C429.02 86.9171 436.05 95.3531 446.188 95.3531C450.48 95.3531 454.106 93.6511 456.77 90.8391L457.362 94.6871L466.908 94.6131V39.1131H456.252ZM448.334 85.8811C443.08 85.8811 439.676 81.5891 439.676 76.1131C439.676 70.6371 443.08 66.2711 448.334 66.2711C451.886 66.2711 454.92 68.7131 456.252 72.1911V80.0351C454.92 83.5131 451.886 85.8811 448.334 85.8811Z" fill="#006498"/>
<path d="M501.95 57.6131L501.432 61.4611C498.768 58.5751 495.142 56.8731 490.776 56.8731C480.638 56.8731 473.608 65.3091 473.608 76.1131C473.608 86.9171 480.638 95.3531 490.776 95.3531C494.846 95.3531 498.25 93.8731 500.84 91.3571V94.4651C500.84 101.125 497.066 104.233 492.626 104.233C488.186 104.233 484.782 102.827 481.822 100.607V110.893C484.93 112.299 488.408 113.113 492.552 113.113C503.948 113.113 511.57 105.713 511.57 94.4651V57.6131H501.95ZM492.922 85.8811C487.668 85.8811 484.264 81.5891 484.264 76.1131C484.264 70.6371 487.668 66.2711 492.922 66.2711C496.474 66.2711 499.508 68.7131 500.84 72.1911V80.0351C499.508 83.5131 496.474 85.8811 492.922 85.8811Z" fill="#006498"/>
<path d="M554.306 76.0391C554.306 64.3471 547.72 56.7991 536.99 56.7991C525.15 56.7991 518.268 65.1611 518.268 76.1131C518.268 87.1391 524.41 95.3531 537.36 95.3531C544.76 95.3531 550.606 91.6531 553.344 85.7331L545.722 81.9591C543.132 85.8071 540.764 87.0651 537.138 87.0651C532.032 87.0651 529.59 84.1051 528.998 79.2211H554.084C554.232 78.1111 554.306 77.0751 554.306 76.0391ZM536.842 65.2351C541.134 65.2351 543.354 67.6771 544.094 71.9691H529.22C530.108 67.8991 532.402 65.2351 536.842 65.2351Z" fill="#006498"/>
<path d="M205.464 116.526V127.534H191.736V116.526H189.56V140.526H191.736V129.486H205.464V140.526H207.608V116.526H205.464Z" fill="#006397"/>
<path d="M238.732 132.398C238.732 127.63 235.884 124.206 231.404 124.206C226.764 124.206 223.82 127.854 223.82 132.526C223.82 137.23 226.764 140.846 231.404 140.846C234.284 140.846 236.396 139.534 237.676 137.326L236.204 136.27C234.956 138.19 233.548 138.99 231.468 138.99C228.14 138.99 226.124 136.622 225.868 133.23H238.7C238.732 132.942 238.732 132.654 238.732 132.398ZM231.436 126.03C234.572 126.03 236.524 128.302 236.812 131.566H225.9C226.252 128.334 228.236 126.03 231.436 126.03Z" fill="#006397"/>
<path d="M259.239 140.846C260.487 140.846 261.479 140.43 262.151 139.758L260.967 138.318C260.519 138.798 259.975 138.99 259.271 138.99C257.927 138.99 257.127 138.19 257.127 136.686L257.095 116.526H255.015V136.686C255.015 139.15 256.679 140.846 259.239 140.846Z" fill="#006397"/>
<path d="M284.86 124.206C282.364 124.206 280.348 125.422 279.1 127.31V124.526H277.02V148.526H279.1V137.742C280.348 139.63 282.364 140.846 284.86 140.846C289.34 140.846 292.252 137.134 292.252 132.526C292.252 127.886 289.34 124.206 284.86 124.206ZM284.572 138.958C281.756 138.958 279.644 136.878 279.1 134.03V131.022C279.644 128.174 281.756 126.094 284.572 126.094C288.028 126.094 290.204 128.942 290.204 132.526C290.204 136.078 288.028 138.958 284.572 138.958Z" fill="#006397"/>
<path d="M310.097 121.486C310.961 121.486 311.665 120.782 311.665 119.918C311.665 119.054 310.961 118.35 310.097 118.35C309.265 118.35 308.529 119.054 308.529 119.918C308.529 120.782 309.265 121.486 310.097 121.486ZM309.041 140.526H311.153V124.526H309.041V140.526Z" fill="#006397"/>
<path d="M336.52 124.206C334.28 124.206 332.36 125.262 331.208 126.926L331.112 124.526H329.16V140.526H331.272V130.702C331.272 128.142 333.384 126.094 336.008 126.094C338.6 126.094 340.616 128.078 340.616 130.606V140.526H342.728V130.414C342.728 126.862 340.04 124.206 336.52 124.206Z" fill="#006397"/>
<path d="M372.233 124.526L372.105 127.47C370.825 125.486 368.745 124.206 366.281 124.206C361.801 124.206 358.889 127.886 358.889 132.526C358.889 137.134 361.801 140.846 366.281 140.846C368.713 140.846 370.761 139.598 372.073 137.646V140.302C372.073 144.046 369.801 146.638 366.729 146.638C364.617 146.638 362.921 145.774 361.609 144.398V146.766C362.985 147.886 364.617 148.526 366.601 148.526C371.081 148.526 374.121 144.942 374.121 140.302V124.526H372.233ZM366.569 138.958C363.145 138.958 360.937 136.078 360.937 132.526C360.937 128.942 363.145 126.094 366.569 126.094C369.257 126.094 371.497 128.206 372.073 131.054V133.966C371.497 136.846 369.257 138.958 366.569 138.958Z" fill="#006397"/>
<path d="M428.087 116.526V127.534H414.358V116.526H412.182V140.526H414.358V129.486H428.087V140.526H430.23V116.526H428.087Z" fill="#006397"/>
<path d="M453.387 124.206C450.347 124.206 448.171 125.39 447.051 127.214L448.523 128.494C449.419 126.894 451.147 126.03 453.259 126.03C455.755 126.03 457.707 127.214 457.707 129.966V132.27L454.507 131.662C448.683 130.51 446.539 133.102 446.539 135.95C446.539 138.798 448.555 140.846 451.403 140.846C453.643 140.846 455.883 139.726 457.771 137.902L457.867 140.526H459.755V130.062C459.755 126.094 456.939 124.206 453.387 124.206ZM451.851 138.958C449.931 138.958 448.683 137.678 448.683 135.854C448.683 133.998 450.155 132.334 454.539 133.23L457.707 133.902V135.982C455.915 137.806 453.931 138.958 451.851 138.958Z" fill="#006397"/>
<path d="M484.495 124.206C482.255 124.206 480.335 125.262 479.183 126.926L479.087 124.526H477.135V140.526H479.247V130.702C479.247 128.142 481.359 126.094 483.983 126.094C486.575 126.094 488.591 128.078 488.591 130.606V140.526H490.703V130.414C490.703 126.862 488.015 124.206 484.495 124.206Z" fill="#006397"/>
<path d="M520.048 116.526V127.31C518.768 125.422 516.752 124.206 514.256 124.206C509.776 124.206 506.864 127.886 506.864 132.526C506.864 137.134 509.776 140.846 514.256 140.846C516.784 140.846 518.8 139.598 520.08 137.646L520.208 140.526H522.096V116.526H520.048ZM514.544 138.958C511.12 138.958 508.912 136.078 508.912 132.526C508.912 128.942 511.12 126.094 514.544 126.094C517.36 126.094 519.472 128.174 520.048 131.022V134.03C519.472 136.878 517.36 138.958 514.544 138.958Z" fill="#006397"/>
<path d="M544.613 140.846C548.005 140.846 550.597 138.894 550.597 136.142C550.597 132.942 547.749 132.206 545.189 131.502C543.109 130.958 541.189 130.382 541.189 128.43C541.189 126.638 543.237 125.87 545.061 125.934C546.373 125.998 547.781 126.51 548.645 127.438L549.893 125.998C548.773 125.006 546.725 124.206 544.709 124.206C541.957 124.206 539.077 125.806 539.077 128.686C539.077 131.598 541.701 132.462 544.133 133.166C546.341 133.806 548.485 134.318 548.485 136.27C548.485 138.126 546.693 139.118 544.517 139.086C542.437 139.054 540.165 138.062 539.429 136.814L538.213 138.158C539.237 139.694 541.989 140.846 544.613 140.846Z" fill="#006397"/>
</svg>
